<?xml version="1.0" encoding="UTF-8"?>
<svg id="Livello_1" xmlns="http://www.w3.org/2000/svg" xmlns:xlink="http://www.w3.org/1999/xlink" viewBox="0 0 250.94 251.24">
  <defs>
    <style>
      .cls-1, .cls-2 {
        fill: #1d1d1b;
      }

      .cls-3, .cls-4 {
        fill: #fff;
      }

      .cls-4, .cls-5, .cls-2 {
        fill-rule: evenodd;
      }

      .cls-6 {
        fill: none;
      }

      .cls-7 {
        fill: #e30613;
      }

      .cls-5 {
        fill: #9d9c9c;
      }

      .cls-8 {
        clip-path: url(#clippath);
      }
    </style>
    <clipPath id="clippath">
      <rect class="cls-6" x="-.03" y=".12" width="251" height="251"/>
    </clipPath>
  </defs>
  <g class="cls-8">
    <path class="cls-4" d="M51.35,123.73V43.7h0v-1.43c0-1.49.09-2.88.29-4.18.21-1.36.54-2.64,1.02-3.86.48-1.21,1.12-2.37,1.95-3.5.82-1.11,1.82-2.16,3.04-3.18,1.85-1.55,5.24-3.06,9.74-4.45,4.51-1.39,10.19-2.69,16.58-3.79,6.28-1.08,13.24-1.96,20.46-2.55h0c6.77-.56,13.83-.86,20.82-.84,6.99-.02,14.05.29,20.82.84h0c7.23.59,14.18,1.48,20.46,2.55,6.4,1.1,12.07,2.39,16.58,3.79,4.5,1.39,7.89,2.91,9.74,4.45,1.21,1.01,2.22,2.07,3.04,3.18.83,1.12,1.47,2.29,1.95,3.5.48,1.22.81,2.51,1.02,3.86.2,1.3.28,2.69.28,4.18v1.43s0,0,0,0v81.46H51.35v-1.43Z"/>
    <rect class="cls-7" x="121.7" y="16.3" width="7.1" height="108.43"/>
    <rect class="cls-7" x="51.47" y="70.54" width="147.16" height="7.1"/>
    <path class="cls-5" d="M53.17,128.11l35.81,1.91,1.39.07-.04,1.39v.28s0,.71,0,.71c0,5.87,1.18,11.45,3.33,16.53,2.23,5.29,5.5,10.05,9.57,14.04,4.06,3.99,8.91,7.2,14.3,9.39,4.93,2,10.29,3.16,15.92,3.27h.93c5.64,0,11.04-1.04,16.01-2.95,5.15-1.97,9.83-4.87,13.83-8.49,3.95-3.57,7.24-7.86,9.66-12.66,2.34-4.64,3.85-9.76,4.36-15.18l.12-1.3h20.8l-.24,1.64c-1.3,8.76-4.12,16.98-8.19,24.41-4.19,7.65-9.68,14.46-16.17,20.14-6.66,5.83-14.37,10.47-22.79,13.63-8.15,3.06-16.96,4.73-26.11,4.73-9.74,0-19.06-1.88-27.61-5.3-8.85-3.54-16.87-8.74-23.65-15.21-6.72-6.41-12.23-14.08-16.15-22.64-3.78-8.26-6.08-17.34-6.55-26.92l-.08-1.58,1.57.08Z"/>
    <path class="cls-2" d="M52.77,42.27h0v81.46h144.95V42.27h.01c0-2.8-.32-5.27-1.21-7.51-.87-2.21-2.32-4.21-4.58-6.1-3.46-2.89-13.13-5.78-25.64-7.93-12.1-2.07-26.78-3.42-41.05-3.38-14.27-.04-28.95,1.3-41.05,3.38-12.52,2.15-22.19,5.04-25.64,7.93-2.26,1.89-3.7,3.89-4.58,6.1-.89,2.24-1.21,4.72-1.21,7.51M50.65,42.27h0c0-3.06.36-5.79,1.35-8.3,1-2.53,2.64-4.82,5.19-6.95,3.74-3.13,13.78-6.19,26.65-8.39,12.19-2.09,26.99-3.45,41.41-3.4,14.42-.04,29.22,1.31,41.41,3.4,12.87,2.21,22.91,5.26,26.65,8.39,2.55,2.13,4.19,4.42,5.19,6.95.99,2.5,1.35,5.23,1.35,8.3h0v83.59h-.04s-65.58,0-65.58,0H50.65V42.27Z"/>
    <polygon class="cls-5" points="164.38 88.49 161.16 95.32 153.64 94.69 157.94 100.89 153.64 107.1 161.16 106.47 164.42 113.25 167.6 106.47 175.13 107.06 170.82 100.89 175.13 94.71 167.6 95.32 164.38 88.49"/>
    <polygon class="cls-5" points="86.24 88.49 83.02 95.32 75.5 94.69 79.8 100.89 75.5 107.1 83.02 106.47 86.28 113.25 89.46 106.47 96.99 107.06 92.68 100.89 96.99 94.71 89.46 95.32 86.24 88.49"/>
    <polygon class="cls-5" points="164.38 31.63 161.16 38.46 153.64 37.84 157.94 44.04 153.64 50.24 161.16 49.62 164.42 56.39 167.6 49.62 175.13 50.21 170.82 44.04 175.13 37.86 167.6 38.46 164.38 31.63"/>
    <polygon class="cls-5" points="86.24 31.63 83.02 38.46 75.5 37.84 79.8 44.04 75.5 50.24 83.02 49.62 86.28 56.39 89.46 49.62 96.99 50.21 92.68 44.04 96.99 37.86 89.46 38.46 86.24 31.63"/>
    <rect class="cls-1" x="124.02" y="125.01" width="2.47" height="50.23"/>
    <path class="cls-2" d="M88.91,131.44l-35.81-1.91c.94,19.13,9.31,36.24,22.26,48.6,13.07,12.48,30.81,20.12,50.28,20.12,18.26,0,35.1-6.75,47.96-18,12.54-10.97,21.3-26.23,23.88-43.69h-17.84c-1.07,11.41-6.45,21.5-14.48,28.76-8.13,7.35-18.97,11.81-30.79,11.81h0c-12.55,0-23.91-5-32.14-13.08-8.23-8.09-13.32-19.26-13.32-31.59h0c0-.25,0-.6.02-1.02M91.12,129.8l-.03.5c-.02.39-.04.76-.04,1.1,0,.26-.01.61-.01,1.06h0c0,11.74,4.85,22.38,12.69,30.08,7.84,7.7,18.68,12.47,30.64,12.47h0c11.27,0,21.61-4.25,29.35-11.26,7.74-7.01,12.9-16.77,13.83-27.8v-1.34h22.24v.89h0c-2.41,18.55-11.54,34.76-24.77,46.34-13.24,11.58-30.57,18.53-49.37,18.53-20.04,0-38.3-7.87-51.76-20.72-13.38-12.77-22.01-30.46-22.92-50.24h0l-.1-1.91,40.27,2.3Z"/>
    <path class="cls-3" d="M14.97,235.82v-17.16h6.34c2.33,0,4.05.41,5.16,1.21,1.11.81,1.67,2.06,1.67,3.76,0,.95-.25,1.76-.74,2.43-.49.67-1.24,1.24-2.25,1.71.43.15.81.41,1.15.78.34.36.63.83.89,1.38l2.74,5.88h-4.85l-2.19-4.95c-.35-.79-.75-1.33-1.2-1.62-.45-.3-1.09-.44-1.92-.44-.06,0-.15,0-.26.01-.11,0-.19.01-.25.01v6.99h-4.3ZM21.33,225.69c.8,0,1.39-.17,1.78-.5.39-.33.58-.83.58-1.51s-.2-1.14-.61-1.48c-.41-.34-.99-.51-1.75-.51h-2.06v4h2.06Z"/>
    <polygon class="cls-3" points="31.27 235.82 31.27 218.66 42.76 218.66 42.76 221.82 35.57 221.82 35.57 225.32 42.43 225.32 42.43 228.51 35.57 228.51 35.57 232.6 42.96 232.6 42.96 235.82 31.27 235.82"/>
    <path class="cls-3" d="M61.35,233.8c-1.05.79-2.16,1.37-3.33,1.75-1.17.38-2.46.57-3.86.57s-2.59-.21-3.72-.62c-1.13-.41-2.11-1.01-2.93-1.8-.87-.83-1.53-1.79-1.98-2.89-.46-1.11-.68-2.29-.68-3.56,0-2.68.89-4.82,2.67-6.45,1.78-1.63,4.14-2.44,7.08-2.44,1.07,0,2.13.13,3.18.38,1.05.25,2.11.65,3.2,1.18v3.77c-1.14-.58-2.22-1.02-3.25-1.3-1.03-.29-1.99-.43-2.89-.43-1.74,0-3.09.47-4.08,1.41-.98.94-1.48,2.24-1.48,3.89s.47,2.89,1.41,3.85c.94.95,2.2,1.43,3.79,1.43.42,0,.85-.05,1.26-.13.42-.09.83-.22,1.25-.39v-2.16h-2.36v-3.22h6.73v7.18Z"/>
    <rect class="cls-3" x="64.47" y="218.66" width="4.42" height="17.16"/>
    <path class="cls-3" d="M71.51,227.25c0-1.28.23-2.45.67-3.54.45-1.08,1.12-2.05,2.01-2.9.87-.82,1.85-1.43,2.95-1.83,1.1-.4,2.32-.6,3.68-.6s2.6.2,3.71.61c1.11.41,2.09,1.01,2.96,1.82.88.85,1.55,1.82,2.01,2.9.46,1.08.68,2.26.68,3.54s-.23,2.44-.68,3.53c-.45,1.08-1.12,2.04-2.01,2.88-.88.82-1.87,1.43-2.98,1.85-1.11.41-2.34.62-3.69.62s-2.56-.21-3.66-.61c-1.1-.41-2.09-1.03-2.97-1.86-.88-.83-1.55-1.79-2.01-2.88-.46-1.08-.68-2.26-.68-3.53M75.93,227.25c0,1.53.46,2.79,1.38,3.77.92.98,2.09,1.48,3.52,1.48s2.6-.49,3.53-1.48c.92-.98,1.38-2.24,1.38-3.77s-.46-2.8-1.38-3.79c-.92-.99-2.1-1.49-3.53-1.49s-2.6.49-3.52,1.49c-.92.99-1.38,2.25-1.38,3.79Z"/>
    <polygon class="cls-3" points="96.94 225.04 96.94 235.82 92.69 235.82 92.69 218.66 96.45 218.66 105.66 228.89 105.66 218.66 109.9 218.66 109.9 235.82 106.54 235.82 96.94 225.04"/>
    <polygon class="cls-3" points="113.26 235.82 113.26 218.66 124.75 218.66 124.75 221.82 117.56 221.82 117.56 225.32 124.42 225.32 124.42 228.51 117.56 228.51 117.56 232.6 124.95 232.6 124.95 235.82 113.26 235.82"/>
    <polygon class="cls-3" points="134.55 235.82 134.55 218.66 138.85 218.66 138.85 232.5 146.24 232.5 146.24 235.82 134.55 235.82"/>
    <rect class="cls-3" x="148.3" y="218.66" width="4.42" height="17.16"/>
    <path class="cls-3" d="M171.84,233.8c-1.05.79-2.16,1.37-3.33,1.75-1.17.38-2.46.57-3.86.57s-2.59-.21-3.72-.62c-1.13-.41-2.11-1.01-2.93-1.8-.87-.83-1.53-1.79-1.98-2.89-.46-1.11-.68-2.29-.68-3.56,0-2.68.89-4.82,2.67-6.45,1.78-1.63,4.14-2.44,7.08-2.44,1.07,0,2.13.13,3.18.38,1.05.25,2.12.65,3.2,1.18v3.77c-1.14-.58-2.22-1.02-3.25-1.3-1.03-.29-1.99-.43-2.89-.43-1.74,0-3.09.47-4.08,1.41-.98.94-1.48,2.24-1.48,3.89s.47,2.89,1.41,3.85c.94.95,2.2,1.43,3.79,1.43.42,0,.85-.05,1.26-.13.42-.09.83-.22,1.25-.39v-2.16h-2.36v-3.22h6.73v7.18Z"/>
    <path class="cls-3" d="M190.94,218.66v9.82c0,2.4-.71,4.28-2.14,5.62-1.43,1.34-3.42,2.02-5.98,2.02s-4.54-.67-5.97-2.02c-1.43-1.34-2.14-3.22-2.14-5.62v-9.82h4.32v9.65c0,1.37.33,2.41.98,3.13.65.72,1.6,1.08,2.84,1.08s2.18-.36,2.82-1.08c.64-.72.97-1.76.97-3.14v-9.65h4.3Z"/>
    <path class="cls-3" d="M194.31,235.82v-17.16h6.34c2.33,0,4.05.41,5.16,1.21,1.11.81,1.67,2.06,1.67,3.76,0,.95-.25,1.76-.74,2.43-.49.67-1.24,1.24-2.25,1.71.43.15.81.41,1.15.78.34.36.63.83.89,1.38l2.74,5.88h-4.85l-2.19-4.95c-.35-.79-.75-1.33-1.2-1.62-.45-.3-1.09-.44-1.92-.44-.06,0-.15,0-.26.01-.11,0-.19.01-.25.01v6.99h-4.3ZM200.67,225.69c.8,0,1.39-.17,1.78-.5.39-.33.58-.83.58-1.51s-.2-1.14-.61-1.48c-.41-.34-.99-.51-1.75-.51h-2.06v4h2.06Z"/>
    <rect class="cls-3" x="210.74" y="218.66" width="4.42" height="17.16"/>
    <path class="cls-3" d="M216.44,235.82l7.48-17.16h4.95l6.68,17.16h-4.55l-1.23-3.34h-7.4l-1.37,3.34h-4.57ZM223.62,229.54h5.07l-2.4-6.53-2.66,6.53Z"/>
  </g>
</svg>