<?xml version="1.0" encoding="UTF-8"?>
<svg xmlns="http://www.w3.org/2000/svg" version="1.1" viewBox="0 0 226.8 56.7">
  <!-- Generator: Adobe Illustrator 28.7.1, SVG Export Plug-In . SVG Version: 1.2.0 Build 142)  -->
  <g>
    <g id="Livello_1">
      <g>
        <path d="M216.1,55.3h-18.9c-4.1,0-5-2-5-3.5s.2-1.6.5-2.6l10.9-39.6c.3-1,.5-1.9.5-2.6s-.3-2.1-2.5-2.5h-.6c0-.1.9-3.2.9-3.2h18.7c3.7,0,5.6,1.3,5.6,3.6s-.1,1.2-.4,1.8l-11.6,42c-.3,1-.3,1.4-.3,1.5,0,.8.8,1.4,2.4,1.9h.5c0,.1-.8,3.1-.8,3.1Z" fill="#ce0e2d"/>
        <path d="M173.7,55.4l-13.9-.2c-5.8-.1-9.7-.8-11.9-2.2-3.3-1.8-5-5-5-9.6s.4-6.8,1.1-10.4c.7-3.6,1.7-7.2,2.9-10.7,1.2-3.5,2.7-7,4.2-10.2,2.5-5,5.9-8.3,10-9.6,2.5-.8,6.3-1.2,11.1-1.2h24.1l-2.2,7.7c-.4,1.5-1.1,2.6-2.2,3.2-1,.5-2.5.8-4.5.8h-6.9c-2.4,0-4,0-4.9.2-.8.1-1.6.5-2.2,1-1.4,1.2-2.6,3.3-3.4,6.2-.2.7-.9,2.5-1.9,5.4-1,2.8-1.7,5.7-2.2,7.5-.5,1.8-.7,3.6-.7,5.4s.6,3,1.8,3.5c1.4.6,3.4.9,6,.9h6c2.7,0,4.6-.2,5.5-.5.9-.3,1.6-1.6,2.2-2.7v-.3h4l-3,9.4c-.7,2.5-2.3,4.3-4.9,5.1-2.4.8-5.5,1.2-9.3,1.2Z" fill="#ce0e2d"/>
        <path d="M127.7,55.3h-33.8c-3.8,0-4.6-1.9-4.6-3.5s0-1.5.3-2.3h0s11.7-42.8,11.7-42.8c0-.8-.3-2-2.5-2.4h-.6c0-.1.8-3,.8-3h45.9l-1.7,6.6c-.6,2-1.5,3.3-2.7,4-1.2.7-3,1-5.6,1h-13.4l-2,8h18.8l-1.7,6c-.6,2.1-1.3,3.4-2.3,4.1-.9.7-2.5,1-4.8,1h-13.5s-3.1,11.1-3.1,11.1h14.7c3.1,0,4.3-.3,4.8-.5.7-.3,1.4-1.2,2-2.5v-.3h3.7l-2.8,10.8c-.4,1.4-.9,2.4-1.4,3-.5.7-1.3,1.1-2.2,1.4-.9.2-2.2.3-4,.3Z" fill="#ce0e2d"/>
        <path d="M84.1,55.4h-18.7c-2,0-3.3-.4-3.8-1.4-.5-.8-.7-2.1-.7-3.9l.3-23.9-14.4,29.2h-16.9l-2-29.1-8.9,23.1c-.2.5-.2,1-.2,1.4s0,1.4,2.1,1.4h.7l-.9,3.1H3.9c-2.9,0-3.5-1.4-3.5-2.6s.4-2,1.1-3.2L19.7,9.1c.8-1.8,1-2.7,1-3.1s-.2-1.3-1.9-1.5h-.6c0,0,.8-3.2.8-3.2h19.4c1.5,0,2.6.1,3.4.3.8.2,1.4.7,1.8,1.5.3.6.5,1.6.7,3.1l1.6,19.3,9.4-17.4c.5-1.1.7-1.7.7-2,0-.7-.2-1.5-2.1-1.7h-.6c0,0,.9-3.2.9-3.2h20.1c1.6,0,2.8.1,3.6.3.9.3,1.5.8,1.8,1.5.3.7.4,1.7.4,3l.7,41.1c0,1.7.2,3,.6,3.7.4.8,1.8,1.1,2.9,1.1h.6s-.8,3.1-.8,3.1Z" fill="#ce0e2d"/>
      </g>
    </g>
  </g>
</svg>