<?xml version="1.0" encoding="utf-8"?>
<!-- Generator: Adobe Illustrator 28.0.0, SVG Export Plug-In . SVG Version: 6.00 Build 0)  -->
<svg version="1.1" id="Livello_1" xmlns="http://www.w3.org/2000/svg" xmlns:xlink="http://www.w3.org/1999/xlink" x="0px" y="0px"
	 viewBox="0 0 850.4 850.4" style="enable-background:new 0 0 850.4 850.4;" xml:space="preserve">
<style type="text/css">
	.st0{fill:#FFFFFF;}
</style>
<path class="st0" d="M16.5,307.6l526.3,526.3c11.3-3.2,22.4-7,33.4-11.1L27.6,274.3C23.4,285.2,19.7,296.3,16.5,307.6z"/>
<path class="st0" d="M1.3,458c5.2,68.4,26.6,132.3,60.4,187.9l115.2,115.2c14.3,14.3,37.5,14.3,51.7,0l12-12
	c14.3-14.3,14.3-37.5,0-51.7L1.3,458z"/>
<path class="st0" d="M496.8,492c9.5-14.2,7.9-33.6-4.6-46.1L218,171.7c-12.5-12.5-31.9-14.1-46.1-4.6L127,122.2
	c-7.5,7.4-14.7,15-21.6,22.9l44.3,44.3c-9.5,14.2-7.9,33.6,4.6,46.1l274.2,274.2c12.5,12.5,31.9,14.1,46.1,4.6L705.4,745
	c7.9-6.9,15.5-14.1,22.9-21.6L496.8,492z"/>
<path class="st0" d="M825.4,569.1L622.5,366.2c9.5-14.2,7.9-33.6-4.6-46.1L343.8,45.9c-12.5-12.5-31.9-14.1-46.1-4.6L281.3,25
	c-10.7,3.9-21.3,8.1-31.6,12.8l25.7,25.7c-9.4,14.2-7.9,33.6,4.6,46.1l274.2,274.2c12.5,12.5,31.9,14.1,46.1,4.6l212.3,212.3
	C817.3,590.4,821.6,579.8,825.4,569.1z"/>
<path class="st0" d="M848.5,385c-1.7-17.9-4.5-35.5-8.3-52.8l-91.8-91.8c9.5-14.2,7.9-33.6-4.6-46.1L577.6,28.1
	C530.3,10,478.9,0,425.2,0c-1.1,0-2.1,0-3.2,0l258,258c12.5,12.5,31.9,14.1,46.1,4.6L848.5,385z"/>
<path class="st0" d="M557,20.8L20.9,557c-46.5-143.1-15.2-306,94-422.5l19.7-19.7C216.2,38.3,320.7,0,425.2,0
	C469.7,0,514.2,6.9,557,20.8z"/>
<path class="st0" d="M850.3,432.8c0-0.1,0-0.2,0-0.2c1.9-111.3-39.6-223.1-124.5-308C676.8,75.5,618.8,40.9,557,20.8
	C514.2,7,469.7,0,425.2,0c-104.5,0-209,38.3-290.6,114.8c-3.4,3.2-6.7,6.4-10.1,9.7c-3.3,3.3-6.5,6.6-9.6,10
	C5.7,250.9-25.7,413.9,20.9,557c20.1,61.8,54.6,119.8,103.7,168.9c9.3,9.3,18.9,18.1,28.8,26.3c73.7,61.9,168.9,99.2,272.7,99.2
	c231.5,0,419.6-185.4,424.2-415.7C850.3,434.7,850.3,433.8,850.3,432.8z M567.8,762.8c-44.9,19-92.6,28.6-141.8,28.6
	c-49.2,0-96.9-9.6-141.8-28.6c-43.4-18.3-82.3-44.6-115.8-78.1c-33.5-33.5-59.8-72.4-78.1-115.8c-19-44.9-28.6-92.6-28.6-141.8
	c0-49.2,9.6-96.9,28.6-141.8c18.4-43.4,44.6-82.3,78.1-115.8c33.5-33.5,72.4-59.8,115.8-78.1c44.9-19,92.6-28.6,141.8-28.6
	c49.2,0,96.9,9.6,141.8,28.6c43.4,18.4,82.3,44.6,115.8,78.1c33.5,33.5,59.8,72.4,78.1,115.8c19,44.9,28.6,92.6,28.6,141.8
	c0,49.2-9.6,96.9-28.6,141.8c-18.3,43.4-44.6,82.3-78.1,115.8C650.2,718.2,611.2,744.4,567.8,762.8z"/>
</svg>
