<?xml version="1.0" encoding="utf-8"?>
<!-- Generator: Adobe Illustrator 28.0.0, SVG Export Plug-In . SVG Version: 6.00 Build 0)  -->
<svg version="1.1" id="Livello_1" xmlns="http://www.w3.org/2000/svg" xmlns:xlink="http://www.w3.org/1999/xlink" x="0px" y="0px"
	 viewBox="0 0 875.47 875.49" style="enable-background:new 0 0 875.47 875.49;" xml:space="preserve">
<g>
	<path d="M875.47,443.83c-3.06,237.96-197.04,431.87-437.83,431.65C194.84,875.27-0.66,678.77,0,436.18
		C0.66,194.91,197.95-2.39,442.35,0C682.33,2.35,878.75,199.27,875.47,443.83z M440.44,40.42
		C219.35,40.18,39.91,219.37,39.61,440.71c-0.3,219.7,179.02,399.91,398.34,400.32c222.46,0.41,402.19-177.93,402.22-400.34
		C840.2,219.43,661.58,41.15,440.44,40.42z"/>
	<path d="M440.23,90.47c193.56,0,350.67,157.59,349.86,352.45c-0.8,191.33-156.23,348.29-350.69,348.01
		C245.3,790.65,89.41,633.2,89.71,439.79C90.02,246.97,247.36,90.47,440.23,90.47z M481.39,553.35c-7.35,2.28-14.29,4.43-21.22,6.58
		c-9.05,2.81-14.77-0.18-17.59-9.27c-28.92-93.26-57.83-186.52-86.76-279.77c-2.44-7.88-4.95-15.74-7.54-23.98
		c-19.32,6.01-38.1,11.84-56.99,17.71c0.71,2.3,1.25,4.04,1.79,5.77c34.62,111.48,69.24,222.97,103.86,334.45
		c17.14,55.19,34.32,110.37,51.3,165.6c1.37,4.45,2.94,6.68,8.06,6.01c15.49-2.04,31.15-3,46.52-5.69
		c14.32-2.51,28.35-6.71,42.9-10.26C524.11,690.88,502.8,622.27,481.39,553.35z M221.04,286.44c0.34,1.56,0.48,2.54,0.77,3.48
		c5.53,17.93,11.05,35.87,16.61,53.79c25.71,82.77,51.43,165.53,77.13,248.3c2.88,9.28-0.01,14.57-9.29,17.46
		c-7.68,2.39-15.35,4.85-23.1,7.3c0.31,1.21,0.44,1.86,0.64,2.48c13.7,44.08,27.47,88.15,40.98,132.29
		c1.33,4.33,3.48,6.46,7.67,7.83c23.78,7.81,48.08,13.12,72.95,15.77c8.98,0.96,18.05,1.15,27.81,1.73
		C380.5,607.17,328.11,438.5,275.62,269.5C257.24,275.21,239.37,280.75,221.04,286.44z M417.81,225.33c0.36,1.53,0.56,2.64,0.9,3.72
		c17.81,57.24,35.63,114.47,53.43,171.71c13.36,42.97,26.72,85.94,40.01,128.93c2.66,8.59-0.42,14.08-8.99,16.83
		c-1.99,0.64-3.94,1.39-6.07,2.14c21.37,68.8,42.58,137.08,63.88,205.63c31.24-12.2,59.54-28.24,85.37-48.54
		c-19.29-62.09-38.44-123.73-57.72-185.8c-5.47,1.65-10.49,3.23-15.56,4.68c-6.24,1.78-11.84-0.8-14.29-6.74
		c-1.26-3.06-2.12-6.29-3.1-9.47c-28.76-92.62-57.51-185.24-86.27-277.87c-2-6.43-4.05-12.85-6.12-19.38
		C447.79,216.01,432.93,220.63,417.81,225.33z M532.82,189.61c0.45,1.68,0.66,2.66,0.96,3.61c17.09,55.01,34.19,110.01,51.26,165.03
		c13.93,44.87,27.82,89.75,41.73,134.62c3.04,9.81,0.31,15.09-9.49,18.17c-4.24,1.33-8.5,2.61-13.06,4
		c18.6,59.88,37.08,119.38,55.7,179.33c1.09-0.82,1.76-1.25,2.35-1.77c27.42-24.25,50.31-52.22,68.6-83.91
		c1.12-1.94,1.14-5.16,0.46-7.41c-7.59-25.11-15.4-50.15-23.18-75.2c-3.98-12.82-8.03-25.62-12.09-38.56
		c-2.1,0.64-3.84,1.16-5.57,1.7c-10.17,3.14-15.12,0.5-18.37-9.85c-4.17-13.31-8.35-26.62-12.48-39.93
		c-23.64-76.11-47.27-152.23-70.9-228.35c-3.62-11.67-7.26-23.33-11.02-35.4C562.52,180.4,547.82,184.96,532.82,189.61z
		 M174.29,644.55c8.96,25.81,97.26,95.18,132.54,104.08c-13.18-42.42-26.25-84.53-39.44-126.99c-1.76,0.55-3.12,1.02-4.51,1.42
		c-7.92,2.29-13.95-0.86-16.37-8.65c-29.76-95.96-59.51-191.92-89.27-287.88c-1.9-6.11-3.89-12.2-5.88-18.46
		c-6.99,2.2-13.4,3.98-19.59,6.32c-2.01,0.76-4.32,2.68-5.02,4.6c-3.83,10.61-7.31,21.36-10.65,32.14
		c-0.63,2.05-0.61,4.65,0.03,6.71c11.15,36.36,22.44,72.67,33.71,108.99c16.15,52.01,32.34,104.02,48.47,156.04
		c2.68,8.66-0.28,14.03-8.96,16.84C184.33,641.32,179.31,642.93,174.29,644.55z M743.38,584.41
		c64.73-132.25,31.7-303.1-86.84-399.94c0.33,1.21,0.54,2.15,0.83,3.07c28.01,90.21,56.04,180.41,84.05,270.62
		c3.07,9.88,0.33,15.09-9.54,18.19c-6.6,2.07-13.21,4.13-20.13,6.29C722.36,516.76,732.79,550.32,743.38,584.41z"/>
</g>
</svg>
