<?xml version="1.0" encoding="utf-8"?>
<!-- Generator: Adobe Illustrator 28.0.0, SVG Export Plug-In . SVG Version: 6.00 Build 0)  -->
<svg version="1.1" id="Livello_1" xmlns="http://www.w3.org/2000/svg" xmlns:xlink="http://www.w3.org/1999/xlink" x="0px" y="0px"
	 viewBox="0 0 850.39 850.39" style="enable-background:new 0 0 850.39 850.39;" xml:space="preserve">
<style type="text/css">
	.st0{display:none;fill:#323131;}
	.st1{clip-path:url(#SVGID_00000017494262603337436670000009177829820574811297_);}
	.st2{display:none;fill:#FFFFFF;}
	.st3{fill:#FFFFFF;}
	.st4{clip-path:url(#SVGID_00000017494262603337436670000009177829820574811297_);fill:#FFFFFF;}
</style>
<rect x="0.01" y="0" class="st0" width="850.4" height="850.4"/>
<g>
	<defs>
		<circle id="SVGID_1_" cx="425.2" cy="425.2" r="425.19"/>
	</defs>
	<clipPath id="SVGID_00000047770663305423250270000004381907786494636177_">
		<use xlink:href="#SVGID_1_"  style="overflow:visible;"/>
	</clipPath>
	<g style="clip-path:url(#SVGID_00000047770663305423250270000004381907786494636177_);">
		<path class="st2" d="M322.99,491.66l0-418.32c0-20.41,16.55-36.96,36.96-36.96h18.69c20.41,0,36.96,16.55,36.96,36.96l0,418.32
			c0,20.41-16.55,36.96-36.96,36.96h-18.69C339.54,528.62,322.99,512.07,322.99,491.66z"/>
		<path class="st2" d="M453.87,490.03l0-418.32c0-20.41,16.55-36.96,36.96-36.96h18.69c20.41,0,36.96,16.55,36.96,36.96l0,418.32
			c0,20.41-16.55,36.96-36.96,36.96h-18.69C470.42,527,453.87,510.45,453.87,490.03z"/>
		<path class="st2" d="M585.03,491.66l0-418.32c0-20.41,16.55-36.96,36.96-36.96l18.69,0c20.41,0,36.96,16.55,36.96,36.96v418.32
			c0,20.41-16.55,36.96-36.96,36.96H622C601.58,528.62,585.03,512.07,585.03,491.66z"/>
		<path class="st2" d="M60.99,491.66l0-418.32c0-20.41,16.55-36.96,36.96-36.96h18.69c20.41,0,36.96,16.55,36.96,36.96l0,418.32
			c0,20.41-16.55,36.96-36.96,36.96H97.96C77.54,528.62,60.99,512.07,60.99,491.66z"/>
		
			<rect x="89.55" y="456.73" transform="matrix(0.7071 0.7071 -0.7071 0.7071 463.2054 -181.6697)" class="st3" width="722.7" height="23.15"/>
		
			<rect x="182.18" y="364.1" transform="matrix(0.7071 0.7071 -0.7071 0.7071 424.8372 -274.299)" class="st3" width="722.7" height="23.15"/>
		
			<rect x="274.84" y="271.44" transform="matrix(0.7071 0.7071 -0.7071 0.7071 386.4552 -366.9612)" class="st3" width="722.7" height="23.15"/>
		
			<rect x="-3.29" y="549.15" transform="matrix(0.7071 0.7071 -0.7071 0.7071 501.3691 -88.9558)" class="st3" width="722.7" height="23.15"/>
		
			<rect x="-95.92" y="641.78" transform="matrix(0.7071 0.7071 -0.7071 0.7071 539.7374 3.6734)" class="st3" width="722.7" height="23.15"/>
	</g>
	<path style="clip-path:url(#SVGID_00000047770663305423250270000004381907786494636177_);fill:#FFFFFF;" d="M296.02,675.11
		l-8.83,8.83c-10.52,10.52-27.59,10.52-38.11,0L47.14,482.01c-10.52-10.52-10.52-27.59,0-38.11l8.83-8.83
		c10.52-10.52,27.59-10.52,38.11,0l201.93,201.93C306.54,647.52,306.54,664.58,296.02,675.11z"/>
	<path style="clip-path:url(#SVGID_00000047770663305423250270000004381907786494636177_);fill:#FFFFFF;" d="M481.27,489.85
		l-8.83,8.83c-10.52,10.52-27.59,10.52-38.11,0L232.4,296.75c-10.52-10.52-10.52-27.59,0-38.11l8.83-8.83
		c10.52-10.52,27.59-10.52,38.11,0l201.93,201.93C491.8,462.26,491.8,479.32,481.27,489.85z"/>
	<path style="clip-path:url(#SVGID_00000047770663305423250270000004381907786494636177_);fill:#FFFFFF;" d="M573.92,397.2
		l-8.83,8.83c-10.52,10.52-27.59,10.52-38.11,0L325.04,204.1c-10.52-10.52-10.52-27.59,0-38.11l8.83-8.83
		c10.52-10.52,27.59-10.52,38.11,0l201.93,201.93C584.44,369.61,584.44,386.68,573.92,397.2z"/>
	<path style="clip-path:url(#SVGID_00000047770663305423250270000004381907786494636177_);fill:#FFFFFF;" d="M666.57,304.56
		l-8.83,8.83c-10.52,10.52-27.59,10.52-38.11,0L417.69,111.46c-10.52-10.52-10.52-27.59,0-38.11l8.83-8.83
		c10.52-10.52,27.59-10.52,38.11,0l201.93,201.93C677.09,276.97,677.09,294.03,666.57,304.56z"/>
</g>
<path class="st3" d="M557.01,20.85L20.87,557c-46.55-143.13-15.19-306.05,94.04-422.5l19.68-19.68C216.23,38.27,320.72,0,425.2,0
	C469.73,0,514.25,6.95,557.01,20.85z"/>
<path class="st3" d="M725.85,124.54c-49.05-49.06-107.1-83.62-168.85-103.69C514.25,6.95,469.73,0,425.2,0
	C320.72,0,216.23,38.27,134.59,114.81c-3.39,3.18-6.74,6.42-10.05,9.73c-3.28,3.28-6.49,6.59-9.63,9.95
	C5.68,250.94-25.68,413.87,20.87,557c20.07,61.75,54.63,119.8,103.68,168.86C207.56,808.87,316.39,850.4,425.2,850.4
	c108.81,0,217.64-41.52,300.66-124.54C891.91,559.8,891.91,290.59,725.85,124.54z M691.02,691.02
	c-35.91,35.89-77.74,63.68-124.34,82.58c-45.03,18.27-92.63,27.53-141.48,27.53c-48.85,0-96.45-9.26-141.49-27.53
	c-46.6-18.89-88.43-46.68-124.33-82.58c-35.89-35.91-63.68-77.74-82.58-124.34c-6.57-16.17-11.96-32.67-16.17-49.44
	c-7.55-29.93-11.36-60.73-11.36-92.04c0-48.85,9.26-96.46,27.53-141.49c18.9-46.6,46.68-88.43,82.58-124.33
	c35.91-35.89,77.74-63.68,124.33-82.58c45.04-18.27,92.64-27.53,141.49-27.53c31.31,0,62.1,3.81,92.04,11.36
	c16.78,4.22,33.27,9.62,49.44,16.17c46.61,18.89,88.44,46.68,124.34,82.58c35.89,35.91,63.68,77.74,82.58,124.33
	c18.27,45.03,27.53,92.64,27.53,141.49c0,48.85-9.26,96.45-27.53,141.48C754.7,613.29,726.91,655.12,691.02,691.02z"/>
<g>
	<path class="st3" d="M426.06,62.8c49.21,0,96.91,9.62,141.78,28.6c43.37,18.35,82.34,44.62,115.81,78.1
		c33.48,33.48,59.75,72.44,78.1,115.81c18.98,44.87,28.6,92.58,28.6,141.78s-9.62,96.91-28.6,141.78
		c-18.35,43.37-44.62,82.34-78.1,115.81c-33.48,33.48-72.44,59.75-115.81,78.1c-44.87,18.98-92.58,28.6-141.78,28.6
		s-96.91-9.62-141.78-28.6c-43.37-18.35-82.34-44.62-115.81-78.1c-33.48-33.48-59.75-72.44-78.1-115.81
		C71.39,524,61.76,476.3,61.76,427.09s9.62-96.91,28.6-141.78c18.35-43.37,44.62-82.34,78.1-115.81
		c33.48-33.48,72.44-59.75,115.81-78.1C329.15,72.42,376.85,62.8,426.06,62.8 M426.06,2.8c-234.33,0-424.3,189.96-424.3,424.3
		s189.96,424.3,424.3,424.3s424.3-189.96,424.3-424.3S660.39,2.8,426.06,2.8L426.06,2.8z"/>
</g>
</svg>
